<?xml version="1.0" standalone="no"?>
<!DOCTYPE svg PUBLIC "-//W3C//DTD SVG 20010904//EN"
 "http://www.w3.org/TR/2001/REC-SVG-20010904/DTD/svg10.dtd">
<svg version="1.0" xmlns="http://www.w3.org/2000/svg"
 width="837.000000pt" height="666.000000pt" viewBox="0 0 837.000000 666.000000"
 preserveAspectRatio="xMidYMid meet">

<g transform="translate(0.000000,666.000000) scale(0.100000,-0.100000)"
fill="#000000" stroke="none">
<path d="M0 3330 l0 -3330 4185 0 4185 0 0 3330 0 3330 -4185 0 -4185 0 0
-3330z m4245 1550 c49 -83 52 -100 17 -81 -12 6 -23 11 -26 11 -3 0 -6 -72 -6
-160 l0 -160 42 -46 43 -46 -35 15 c-19 8 -46 20 -60 26 -22 10 -34 8 -80 -13
-30 -14 -56 -23 -59 -21 -2 3 13 20 35 39 l39 34 2 161 c1 157 -4 188 -30 162
-6 -6 -17 -11 -25 -11 -10 0 -6 13 14 48 42 73 74 122 78 122 2 0 25 -36 51
-80z m-420 -124 c96 -44 154 -137 155 -246 0 -144 -103 -259 -248 -277 -122
-14 -253 73 -288 192 -40 139 22 278 151 336 60 28 166 25 230 -5z m970 0 c56
-26 117 -87 141 -143 23 -53 23 -168 -1 -213 -70 -137 -215 -200 -345 -151
-75 28 -124 71 -156 138 -69 139 -8 311 131 374 60 27 167 25 230 -5z m-551
-380 c28 -13 77 -31 108 -39 43 -11 65 -24 89 -52 34 -38 134 -95 168 -95 25
0 35 -15 23 -37 -7 -12 -5 -24 6 -40 19 -30 18 -46 -8 -269 l-22 -181 32 -56
c18 -31 36 -57 40 -57 5 0 23 25 41 56 l32 56 -25 206 c-24 199 -24 206 -6
240 13 26 15 39 7 48 -14 17 -3 34 21 34 10 0 50 16 89 36 l71 37 42 -35 c128
-106 240 -242 313 -380 25 -48 49 -88 53 -88 4 0 32 7 62 15 50 14 56 13 65
-1 29 -45 26 -45 93 -27 60 17 63 17 81 -2 19 -20 81 -235 81 -281 0 -12 -6
-26 -12 -31 -7 -4 -114 -35 -238 -69 -189 -52 -228 -60 -244 -50 -14 9 -30 49
-53 137 -49 184 -49 184 55 210 51 12 53 15 48 40 -3 17 0 32 9 39 8 7 15 16
15 21 0 20 -157 172 -220 214 -60 40 -90 54 -90 41 0 -2 7 -23 15 -47 42 -118
73 -322 82 -531 l6 -158 -881 0 -882 0 0 44 c0 168 45 497 85 624 27 85 23 88
-61 34 -78 -50 -126 -94 -187 -166 -42 -51 -47 -60 -32 -68 11 -7 15 -20 13
-41 -3 -30 -1 -31 56 -48 97 -29 96 -28 57 -182 -41 -159 -45 -167 -77 -167
-46 0 -448 112 -467 130 -18 17 -18 22 20 160 24 93 44 147 55 154 13 8 34 6
79 -6 68 -18 79 -17 79 12 0 27 22 30 85 14 31 -8 58 -14 60 -12 1 2 17 32 35
68 57 113 130 212 230 310 129 127 134 130 195 91 27 -17 65 -34 84 -37 49 -9
53 -12 41 -34 -7 -14 -6 -28 7 -54 16 -34 15 -45 -5 -218 -12 -101 -22 -195
-22 -210 0 -21 45 -114 65 -136 2 -2 19 24 39 58 l36 61 -25 205 c-23 188 -24
207 -10 235 9 16 14 41 13 55 -3 23 2 28 37 39 62 18 103 43 145 86 29 30 55
45 102 58 35 10 82 28 103 39 22 12 42 21 44 22 2 0 27 -11 55 -24z m1138
-1140 c10 -7 15 -16 11 -19 -10 -11 -2391 -8 -2398 2 -3 6 3 14 12 20 12 7
403 10 1188 10 952 0 1173 -2 1187 -13z m-2642 -425 c69 -36 103 -116 102
-236 -2 -158 -74 -245 -202 -245 -102 0 -167 60 -190 175 -21 103 5 232 56
277 58 51 167 65 234 29z m-430 -145 c0 -113 -4 -165 -15 -197 -44 -124 -187
-176 -313 -113 -29 14 -52 31 -52 38 0 6 19 31 43 54 40 40 45 41 77 32 88
-25 100 -2 100 195 l0 145 80 0 80 0 0 -154z m964 123 c42 -36 54 -84 36 -139
-11 -35 -11 -40 8 -61 51 -54 52 -136 2 -193 -45 -50 -70 -57 -210 -54 l-125
3 -3 238 -2 237 129 0 130 0 35 -31z m376 -59 l0 -90 40 0 40 0 0 90 0 90 80
0 80 0 0 -240 0 -240 -80 0 -80 0 0 90 0 90 -40 0 -40 0 0 -90 0 -90 -80 0
-80 0 0 240 0 240 80 0 80 0 0 -90z m550 -66 c0 -154 7 -194 34 -194 23 0 26
24 26 191 l0 159 80 0 80 0 0 -180 c0 -201 -3 -215 -64 -268 -62 -54 -176 -57
-242 -7 -64 49 -74 86 -74 283 l0 172 80 0 80 0 0 -156z m580 66 l35 -85 3 88
3 87 79 0 80 0 0 -240 0 -240 -88 0 -88 0 -13 36 c-7 20 -23 57 -35 83 l-21
46 -5 -80 -5 -80 -77 -3 -78 -3 0 241 0 241 87 -3 88 -3 35 -85z m692 40 c1
-28 2 -55 0 -60 -2 -6 -26 -10 -53 -10 l-49 0 0 -180 0 -180 -80 0 -80 0 0
180 0 180 -50 0 -50 0 0 60 0 60 179 0 179 0 4 -50z m460 0 c1 -28 2 -55 0
-60 -2 -6 -41 -10 -88 -10 l-84 0 0 -30 c0 -29 1 -29 63 -32 l62 -3 0 -55 0
-55 -62 -3 c-62 -3 -63 -3 -63 -32 l0 -30 85 0 85 0 2 -27 c1 -16 2 -37 3 -48
3 -44 0 -45 -171 -45 l-164 0 0 240 0 240 164 0 164 0 4 -50z m437 32 c91 -46
113 -171 44 -253 l-26 -31 41 -83 c22 -46 38 -86 35 -89 -4 -3 -38 -6 -78 -6
l-71 0 -34 68 -35 67 -5 -65 -5 -65 -77 -3 -78 -3 0 241 0 240 128 0 c101 0
134 -4 161 -18z m-802 -679 c-9 -9 -19 -14 -23 -11 -10 10 6 28 24 28 15 0 15
-1 -1 -17z m-2997 -42 c0 -14 -18 -23 -30 -16 -6 4 -8 11 -5 16 8 12 35 12 35
0z m2131 -6 c-1 -15 -24 -12 -29 3 -3 9 2 13 12 10 10 -1 17 -7 17 -13z m873
9 c22 -9 10 -24 -20 -24 -23 0 -31 10 -17 23 8 9 17 9 37 1z m-3004 -130 c0
-86 -2 -95 -17 -92 -15 3 -18 17 -21 96 -3 87 -2 92 18 92 19 0 20 -6 20 -96z
m220 86 c0 -5 -11 -10 -25 -10 -23 0 -24 -2 -27 -82 -3 -70 -6 -83 -20 -86
-16 -3 -18 6 -18 82 l0 86 -30 0 c-16 0 -30 5 -30 10 0 6 32 10 75 10 43 0 75
-4 75 -10z m270 -46 c18 -30 34 -53 37 -50 3 3 6 27 7 53 1 37 5 49 19 51 15
3 17 -7 17 -92 0 -87 -2 -96 -18 -96 -22 0 -39 19 -74 78 -13 23 -28 39 -31
35 -4 -3 -7 -30 -7 -60 0 -40 -4 -53 -15 -53 -8 0 -16 3 -16 8 -6 29 -7 104
-3 140 5 36 9 42 29 42 18 0 31 -13 55 -56z m192 14 c3 -43 3 -43 43 -43 40 0
40 0 43 43 3 34 7 42 23 42 18 0 20 -6 17 -92 -3 -79 -6 -93 -20 -96 -15 -3
-18 4 -18 37 l0 41 -44 0 c-44 0 -45 0 -48 -37 -2 -27 -8 -39 -20 -41 -16 -3
-18 6 -18 92 0 88 2 96 19 96 16 0 20 -8 23 -42z m408 34 c0 -5 -11 -19 -25
-32 -19 -18 -25 -34 -25 -67 0 -54 -26 -83 -74 -83 -36 0 -74 25 -77 50 -1 8
-1 41 0 73 1 50 3 57 21 57 18 0 20 -7 20 -64 0 -67 15 -94 45 -82 11 4 15 22
15 75 0 68 1 70 28 74 50 7 72 7 72 -1z m132 -49 l33 -58 5 55 c4 47 8 55 25
55 19 0 20 -7 20 -90 0 -89 0 -90 -25 -93 -22 -2 -31 6 -60 59 l-35 62 -3 -39
c-4 -62 -11 -84 -27 -84 -16 0 -17 3 -20 105 -2 82 -1 85 30 85 18 0 31 -13
57 -57z m314 43 c28 -21 9 -32 -32 -17 -30 11 -39 10 -59 -3 -32 -21 -42 -62
-24 -95 16 -28 38 -36 75 -27 32 8 32 36 0 36 -14 0 -28 5 -31 10 -4 6 15 10
50 10 l56 0 -3 -42 -3 -43 -68 -3 c-64 -2 -70 -1 -97 27 -64 63 -20 161 72
161 24 0 53 -6 64 -14z m286 -46 c12 -33 27 -59 31 -57 5 1 18 27 30 57 19 46
26 55 47 55 25 0 25 -1 25 -90 0 -83 -1 -90 -20 -90 -11 0 -21 7 -21 15 -1 8
-3 26 -4 40 -1 22 -4 20 -20 -17 -13 -29 -25 -43 -39 -43 -13 0 -25 13 -37 43
l-18 42 -5 -40 c-4 -27 -12 -41 -23 -43 -16 -3 -18 6 -18 92 0 95 0 96 24 96
20 0 28 -10 48 -60z m356 -28 c18 -48 32 -90 32 -94 0 -16 -30 -7 -42 12 -9
14 -24 20 -50 20 -27 0 -40 -5 -48 -20 -12 -22 -40 -27 -40 -8 0 7 14 49 31
95 29 75 34 83 58 83 24 0 29 -8 59 -88z m378 74 c28 -21 9 -32 -32 -17 -30
11 -39 10 -58 -3 -29 -18 -39 -56 -26 -91 16 -42 73 -53 101 -19 6 8 20 14 30
14 16 0 17 -3 7 -19 -42 -68 -165 -42 -183 39 -7 32 15 83 42 99 26 15 96 13
119 -3z m146 -28 c3 -43 3 -43 43 -43 40 0 40 0 43 43 3 34 7 42 23 42 18 0
20 -6 17 -92 -3 -78 -6 -93 -20 -96 -13 -2 -17 5 -20 35 -3 37 -4 38 -45 41
l-42 3 -3 -38 c-2 -27 -8 -39 -20 -41 -16 -3 -18 6 -18 92 0 88 2 96 19 96 16
0 20 -8 23 -42z m345 -47 c18 -46 30 -88 27 -92 -10 -16 -33 -9 -39 11 -5 15
-15 20 -45 20 -29 0 -42 -5 -50 -20 -12 -22 -40 -27 -40 -8 0 7 14 50 32 96
29 77 33 83 57 80 22 -3 30 -15 58 -87z m253 79 c0 -5 -11 -10 -25 -10 -23 0
-24 -2 -27 -82 -3 -69 -6 -83 -20 -86 -15 -3 -18 8 -20 80 -3 82 -3 83 -30 86
-58 7 -25 22 47 22 43 0 75 -4 75 -10z"/>
<path d="M4135 4182 c-28 -26 -72 -65 -99 -87 l-49 -41 21 -89 c31 -128 40
-192 52 -345 5 -74 10 -138 10 -141 0 -4 25 -17 56 -30 51 -20 61 -21 103 -10
85 23 87 26 95 148 9 141 31 287 57 386 l22 79 -34 26 c-19 15 -64 55 -100 89
-36 35 -70 63 -75 63 -5 0 -32 -22 -59 -48z"/>
<path d="M2956 3744 c-8 -22 -9 -22 68 -44 65 -18 84 -15 73 14 -3 7 -27 19
-54 25 -26 7 -55 14 -64 17 -10 3 -19 -3 -23 -12z"/>
<path d="M5360 3743 c-62 -16 -75 -25 -67 -46 5 -13 14 -12 69 3 39 11 64 23
66 33 5 23 -8 25 -68 10z"/>
<path d="M2614 2655 c-17 -40 -18 -86 -4 -137 13 -47 26 -55 51 -32 15 14 19
31 19 91 0 79 -11 113 -36 113 -8 0 -22 -16 -30 -35z"/>
<path d="M3146 2691 c-7 -11 3 -41 14 -41 13 0 32 29 25 40 -8 12 -32 13 -39
1z"/>
<path d="M3142 2498 c3 -29 6 -33 33 -33 27 0 30 3 30 30 0 27 -4 30 -33 33
-32 3 -33 2 -30 -30z"/>
<path d="M6240 2654 c0 -45 1 -46 27 -39 60 15 57 85 -4 85 -21 0 -23 -5 -23
-46z"/>
<path d="M4672 1962 c-11 -34 -8 -42 20 -42 21 0 24 28 5 55 -13 17 -15 16
-25 -13z"/>
<path d="M5543 1961 c-12 -33 -9 -41 19 -41 21 0 24 28 5 53 -11 16 -13 15
-24 -12z"/>
</g>
</svg>
